<svg xmlns="http://www.w3.org/2000/svg"
    xml:space="preserve"
    width="2048" height="2048"
    style="shape-rendering:geometricPrecision;text-rendering:geometricPrecision;image-rendering:optimizeQuality;fill-rule:evenodd;clip-rule:evenodd"><path d="M512 255.999h1056v1536.002H480V255.999h32zM845.351 509.81V407.042h-36.694v-20.94h98.303v20.94H870.35V509.81h-25zm77.739 0V386.102h91.708v20.94h-66.736v27.42h62.099v20.824h-62.099v33.67h69.098v20.854h-94.07zm108.932-40.238 24.31-2.39c1.44 8.18 4.406 14.17 8.9 18.002 4.464 3.802 10.484 5.732 18.088 5.732 8.036 0 14.113-1.7 18.175-5.127 4.09-3.4 6.134-7.374 6.134-11.925 0-2.938-.864-5.415-2.592-7.46-1.7-2.073-4.695-3.86-8.986-5.357-2.91-1.037-9.592-2.823-19.99-5.415-13.393-3.312-22.783-7.402-28.168-12.241-7.604-6.798-11.406-15.092-11.406-24.886 0-6.307 1.785-12.183 5.357-17.685 3.57-5.472 8.727-9.648 15.438-12.529 6.74-2.851 14.834-4.29 24.338-4.29 15.554 0 27.219 3.397 35.082 10.194 7.835 6.827 11.953 15.9 12.356 27.277l-24.972 1.095c-1.066-6.366-3.37-10.946-6.884-13.71-3.513-2.795-8.785-4.177-15.812-4.177-7.258 0-12.962 1.47-17.052 4.465-2.65 1.9-3.974 4.464-3.974 7.662 0 2.937 1.239 5.443 3.715 7.516 3.14 2.65 10.802 5.415 22.956 8.267 12.155 2.88 21.141 5.847 26.96 8.9 5.817 3.082 10.368 7.258 13.681 12.586 3.283 5.33 4.925 11.896 4.925 19.702 0 7.086-1.958 13.739-5.904 19.903-3.946 6.193-9.506 10.801-16.706 13.796-7.2 3.024-16.187 4.522-26.931 4.522-15.64 0-27.65-3.6-36.032-10.83-8.381-7.23-13.394-17.77-15.006-31.597zm149.428 40.238V407.042h-36.695v-20.94h98.304v20.94h-36.609V509.81h-25zM624 1375.999h192.001v224.002H592V1376h32zm255.999-608.001H1424V832H879.999v-64.002zm0-159.999H1424v64.002H879.999v-64.002zm-255.999 0h192.001v224.002H592V608h32zm128 64.002h-95.999V768H752v-96zm128 479.998h544.001V1216H880V1152zm0-160h544.001v64.002H880V992zm-255.999 0h192.001V1216.003H592.002V992h32zm128 64.002h-95.999v96h95.999v-96zm128 479.998h544.001v64.002H880.001v-64.002zm0-159.999h544.001v64.002H880.001V1376zm-128 64.002h-95.999V1536h95.999v-96z" style="fill:#424242"/>
    <path style="fill:none" d="M0 0h2048v2048H0z"/>
</svg>